<?xml version="1.0" encoding="UTF-8"?>
<svg id="Ebene_2" data-name="Ebene 2" xmlns="http://www.w3.org/2000/svg" viewBox="0 0 16 16">
  <g id="SILKitDashboard">
    <g id="ErrorOutlinedBig_Icon16">
      <rect width="16" height="16" style="fill: #f0f; opacity: 0;"/>
      <path d="M8,1C4.13,1,1,4.13,1,8s3.13,7,7,7,7-3.13,7-7S11.87,1,8,1Zm0,13c-3.31,0-6-2.69-6-6S4.69,2,8,2s6,2.69,6,6-2.69,6-6,6Z" style="fill: #4c4c4c;"/>
      <polygon points="12.07 5.33 10.67 3.93 8 6.59 5.33 3.93 3.93 5.33 6.59 8 3.93 10.67 5.33 12.07 8 9.41 10.67 12.07 12.07 10.67 9.41 8 12.07 5.33" style="fill: #4c4c4c;"/>
    </g>
  </g>
</svg>