<?xml version="1.0" encoding="UTF-8"?>
<svg id="Ebene_2" data-name="Ebene 2" xmlns="http://www.w3.org/2000/svg" viewBox="0 0 16 16">
  <g id="SILKitDashboard">
    <g id="Gear_Icon16">
      <rect width="16" height="16" style="fill: #f0f; opacity: 0;"/>
      <rect width="16" height="16" style="fill: #f0f; opacity: 0;"/>
      <path d="M12.78,7.65l1.22-.73c-.06-.34-.15-.67-.26-.98l-1.42-.02c-.1-.22-.22-.42-.35-.62l.69-1.24c-.22-.26-.46-.5-.72-.71l-1.24,.69c-.2-.13-.4-.25-.61-.36l-.02-1.42c-.32-.11-.64-.2-.98-.26l-.73,1.22c-.23-.01-.47-.01-.71,0l-.73-1.22c-.34,.06-.67,.15-.98,.26l-.02,1.42c-.22,.11-.42,.22-.61,.36l-1.24-.7c-.26,.22-.5,.46-.72,.72l.69,1.24c-.13,.2-.25,.4-.35,.61l-1.42,.02c-.11,.31-.2,.64-.26,.98l1.22,.73c-.02,.23-.02,.47,0,.71l-1.22,.73c.06,.34,.15,.67,.26,.98l1.42,.02c.1,.21,.22,.42,.35,.62l-.69,1.24c.22,.26,.46,.5,.72,.72l1.24-.69c.19,.13,.4,.25,.61,.36l.02,1.42c.32,.11,.64,.2,.98,.26l.73-1.22c.23,.01,.47,.02,.71,0l.73,1.22c.34-.06,.67-.15,.98-.26l.02-1.42c.21-.1,.42-.22,.61-.35l1.24,.69c.26-.22,.5-.46,.72-.72l-.69-1.24c.13-.19,.25-.4,.35-.61l1.42-.02c.11-.32,.2-.64,.26-.98l-1.22-.73c.02-.23,.02-.47,0-.71Zm-4.44,2.28c-1.06,.19-2.08-.52-2.27-1.59-.19-1.06,.52-2.08,1.59-2.27,1.06-.19,2.08,.52,2.27,1.59,.19,1.07-.52,2.08-1.59,2.27Z" style="fill: #4c4c4c;"/>
    </g>
  </g>
</svg>