<?xml version="1.0" encoding="UTF-8"?>
<svg id="Ebene_2" data-name="Ebene 2" xmlns="http://www.w3.org/2000/svg" viewBox="0 0 16 16">
  <g id="SILKitDashboard">
    <g id="Network_Icon16">
      <rect width="16" height="16" style="fill: #f0f; opacity: 0;"/>
      <polygon points="14 8.04 14 7 12.01 7 12.01 5 13 5 13 2 10 2 10 5 11 5 11 7 8.01 7 8.01 5 9 5 9 2 6 2 6 5 7 5 7 7 4 7 4 5 5 5 5 2 2 2 2 5 2.99 5 2.99 7 1 7 1 8.04 5 8.04 5 10 4 10 4 13 7 13 7 10 6.01 10 6.01 8.04 9 8.04 9 10 8 10 8 13 11 13 11 10 10.01 10 10.01 8.04 14 8.04" style="fill: #4c4c4c;"/>
    </g>
  </g>
</svg>