<?xml version="1.0" encoding="UTF-8"?>
<svg id="Ebene_2" data-name="Ebene 2" xmlns="http://www.w3.org/2000/svg" viewBox="0 0 16 16">
  <g id="SILKitDashboard">
    <g id="NotVisible_Icon16">
      <rect width="16" height="16" style="fill: #f0f; opacity: 0;"/>
      <polygon points="5 15 4 15 11 1 12 1 5 15" style="fill: #4c4c4c;"/>
      <path d="M14,6.67c-.66-.63-1.63-1.35-2.77-1.89l-.43,.86c1.32,.58,2.29,1.41,2.67,1.75,.22,.2,.4,.42,.53,.61-.14,.19-.32,.41-.53,.61-.6,.55-2.74,2.33-5.34,2.38l-.49,.98c.12,0,.24,.03,.37,.03,2.55,0,4.78-1.51,6-2.67,.63-.6,1-1.33,1-1.33,0,0-.37-.73-1-1.33Z" style="fill: #4c4c4c;"/>
      <path d="M10,8c0-.2-.04-.39-.09-.58l-1.22,2.45c.77-.28,1.32-1.01,1.32-1.87Z" style="fill: #4c4c4c;"/>
      <path d="M8,4c-2.55,0-4.78,1.51-6,2.67-.63,.6-1,1.33-1,1.33,0,0,.37,.73,1,1.33,.66,.63,1.63,1.35,2.77,1.89l.43-.86c-1.32-.58-2.29-1.41-2.67-1.75-.22-.2-.4-.42-.53-.61,.14-.19,.32-.41,.53-.61,.6-.55,2.74-2.33,5.34-2.38l.49-.98c-.12,0-.24-.03-.37-.03Z" style="fill: #4c4c4c;"/>
      <path d="M6,8c0,.2,.04,.39,.09,.58l1.22-2.45c-.77,.28-1.32,1.01-1.32,1.87Z" style="fill: #4c4c4c;"/>
    </g>
  </g>
</svg>