<?xml version="1.0" encoding="UTF-8"?>
<svg id="Ebene_2" data-name="Ebene 2" xmlns="http://www.w3.org/2000/svg" viewBox="0 0 16 16">
  <g id="SILKitDashboard">
    <g id="RestoreRecycleBin_Icon16">
      <rect width="16" height="16" style="fill: #f0f; opacity: 0;"/>
      <polygon points="9 2 9 1 4 1 4 2 2 2 2 3 11 3 11 2 9 2" style="fill: #4c4c4c;"/>
      <path d="M9,6.62v-.62h-1v.59l.4,.4c.19-.14,.4-.25,.6-.36Z" style="fill: none;"/>
      <rect x="4" y="6" width="1" height="7" style="fill: none;"/>
      <rect x="8" y="12" width="1" height="1" style="fill: none;"/>
      <path d="M11.2,12.97c.1,.02,.2,.03,.3,.03,.65,0,1.21-.42,1.41-1h-1.91v.93l.2,.04Z" style="fill: none;"/>
      <polygon points="6 11 6 13 7 13 7 12 6.05 12 6 11" style="fill: none;"/>
      <path d="M11.5,10s-.06,0-.08,0l1.58,1.58s0-.06,0-.08c0-.83-.67-1.5-1.5-1.5Z" style="fill: none;"/>
      <path d="M11,13v-1h-2v1h-1v-1h-1v1h-1V6h3v.62c.62-.33,1.3-.52,2-.58v-2.04H2V15H10v-2h1Zm-6,0h-1V6h1v7Z" style="fill: #4c4c4c;"/>
      <path d="M11.5,7c-1.24,0-2.35,.52-3.16,1.34l-1.34-1.34v4h4l-1.26-1.26c.45-.45,1.07-.74,1.76-.74,1.38,0,2.5,1.12,2.5,2.5s-1.12,2.5-2.5,2.5c-.17,0-.34-.02-.5-.05v2c.17,.02,.33,.05,.5,.05,2.49,0,4.5-2.01,4.5-4.5s-2.01-4.5-4.5-4.5Z" style="fill: #4c4c4c;"/>
    </g>
  </g>
</svg>