<svg xmlns="http://www.w3.org/2000/svg" width="16" height="16" viewBox="0 0 16 16">
  <g id="Ebene_2" data-name="Ebene 2">
    <g id="Team">
      <g id="Settings_Icon16">
        <rect width="16" height="16" fill="#f0f" opacity="0"/>
        <rect width="16" height="16" fill="#f0f" opacity="0"/>
        <path d="M12.78,7.65,14,6.92a6.13,6.13,0,0,0-.26-1l-1.43,0A4.71,4.71,0,0,0,12,5.3l.69-1.24a4.77,4.77,0,0,0-.71-.71L10.7,4a4.71,4.71,0,0,0-.62-.35l0-1.43a6.42,6.42,0,0,0-1-.26L8.36,3.22a5.58,5.58,0,0,0-.71,0L6.92,2a6.13,6.13,0,0,0-1,.26l0,1.42A5.15,5.15,0,0,0,5.31,4L4.06,3.35a5.29,5.29,0,0,0-.71.71L4,5.3a4.71,4.71,0,0,0-.35.62l-1.43,0a6.13,6.13,0,0,0-.26,1l1.22.72a5.61,5.61,0,0,0,0,.71L2,9.08a6.13,6.13,0,0,0,.26,1l1.43,0A4.71,4.71,0,0,0,4,10.7l-.69,1.24a6,6,0,0,0,.71.71L5.31,12a5.15,5.15,0,0,0,.61.36l0,1.42a6.42,6.42,0,0,0,1,.26l.73-1.22h.7L9.08,14a6.13,6.13,0,0,0,1-.26l0-1.43a4,4,0,0,0,.61-.35l1.25.69a5.29,5.29,0,0,0,.71-.71L12,10.69a4,4,0,0,0,.35-.61l1.43,0a6.42,6.42,0,0,0,.26-1l-1.22-.72C12.79,8.12,12.79,7.88,12.78,7.65ZM8.34,9.93A2,2,0,1,1,9.93,7.66,2,2,0,0,1,8.34,9.93Z" fill="#4c4c4c"/>
      </g>
    </g>
  </g>
</svg>
