<?xml version="1.0" encoding="UTF-8"?>
<svg id="Ebene_2" data-name="Ebene 2" xmlns="http://www.w3.org/2000/svg" viewBox="0 0 16 16">
  <g id="SILKitDashboard">
    <g id="Visible_Icon16">
      <rect width="16" height="16" style="fill: #f0f; opacity: 0;"/>
      <path d="M14,6.67c-1.22-1.16-3.45-2.67-6-2.67S3.22,5.51,2,6.67c-.63,.6-1,1.33-1,1.33,0,0,.37,.73,1,1.33,1.22,1.16,3.45,2.67,6,2.67s4.78-1.51,6-2.67c.63-.6,1-1.33,1-1.33,0,0-.37-.73-1-1.33Zm-.53,1.94c-.61,.56-2.8,2.39-5.47,2.39s-4.86-1.83-5.47-2.39c-.22-.2-.4-.42-.53-.61,.14-.19,.32-.41,.53-.61,.61-.56,2.8-2.39,5.47-2.39s4.86,1.83,5.47,2.39c.22,.2,.4,.42,.53,.61-.14,.19-.32,.41-.53,.61Z" style="fill: #4c4c4c;"/>
      <circle cx="8" cy="8" r="2" style="fill: #4c4c4c;"/>
    </g>
  </g>
</svg>